<?xml version="1.0" encoding="UTF-8"?>
<svg xmlns="http://www.w3.org/2000/svg" xmlns:xlink="http://www.w3.org/1999/xlink" viewBox="0 0 50 50" width="50px" height="50px">
<g id="surface1720959">
<path style=" stroke:none;fill-rule:nonzero;fill:rgb(100%,64.705884%,0%);fill-opacity:1;" d="M 25 3.042969 C 12.886719 3.042969 3.042969 12.886719 3.042969 25 C 3.042969 37.113281 12.886719 46.957031 25 46.957031 C 37.113281 46.957031 46.957031 37.113281 46.957031 25 C 46.957031 12.886719 37.113281 3.042969 25 3.042969 Z M 25 4.957031 C 36.082031 4.957031 45.042969 13.917969 45.042969 25 C 45.042969 36.082031 36.082031 45.042969 25 45.042969 C 13.917969 45.042969 4.957031 36.082031 4.957031 25 C 4.957031 13.917969 13.917969 4.957031 25 4.957031 Z M 25 11 C 17.28125 11 11 17.28125 11 25 C 11 32.71875 17.28125 39 25 39 C 32.71875 39 39 32.71875 39 25 C 39 17.28125 32.71875 11 25 11 Z M 25 13 C 31.640625 13 37 18.359375 37 25 C 37 31.640625 31.640625 37 25 37 C 18.359375 37 13 31.640625 13 25 C 13 18.359375 18.359375 13 25 13 Z M 21.035156 17.5 C 20.761719 17.492188 20.5 17.59375 20.304688 17.78125 C 20.109375 17.96875 20 18.230469 20 18.5 L 20 31.5 C 20 31.859375 20.191406 32.191406 20.503906 32.367188 C 20.816406 32.546875 21.199219 32.542969 21.507812 32.363281 L 32.507812 25.863281 C 32.8125 25.679688 33 25.355469 33 25 C 33 24.644531 32.8125 24.320312 32.507812 24.136719 L 21.507812 17.636719 C 21.363281 17.554688 21.199219 17.503906 21.035156 17.5 Z M 22 20.253906 L 30.035156 25 L 22 29.746094 Z M 22 20.253906 "/>
</g>
</svg>
